<svg xmlns="http://www.w3.org/2000/svg" viewBox="0 0 400 300" width="400" height="300" fill="none" role="img"><ellipse cx="200" cy="279" rx="100" ry="9" fill="#c3d0cc" opacity="0.30"/><rect x="98" y="34" width="204" height="238" rx="16" fill="#ffffff" stroke="#c3d0cc" stroke-width="3"/><rect x="113" y="64" width="34" height="44" rx="17" fill="#bcd7ea" stroke="#c3d0cc" stroke-width="2.5"/><rect x="160" y="64" width="34" height="44" rx="17" fill="#bcd7ea" stroke="#c3d0cc" stroke-width="2.5"/><rect x="207" y="64" width="34" height="44" rx="17" fill="#bcd7ea" stroke="#c3d0cc" stroke-width="2.5"/><rect x="254" y="64" width="34" height="44" rx="17" fill="#bcd7ea" stroke="#c3d0cc" stroke-width="2.5"/><rect x="113" y="126" width="34" height="44" rx="17" fill="#bcd7ea" stroke="#c3d0cc" stroke-width="2.5"/><rect x="160" y="126" width="34" height="44" rx="17" fill="#bcd7ea" stroke="#c3d0cc" stroke-width="2.5"/><rect x="207" y="126" width="34" height="44" rx="17" fill="#bcd7ea" stroke="#c3d0cc" stroke-width="2.5"/><rect x="254" y="126" width="34" height="44" rx="17" fill="#bcd7ea" stroke="#c3d0cc" stroke-width="2.5"/><rect x="113" y="188" width="34" height="44" rx="17" fill="#bcd7ea" stroke="#c3d0cc" stroke-width="2.5"/><rect x="160" y="188" width="34" height="44" rx="17" fill="#bcd7ea" stroke="#c3d0cc" stroke-width="2.5"/><rect x="207" y="188" width="34" height="44" rx="17" fill="#bcd7ea" stroke="#c3d0cc" stroke-width="2.5"/><rect x="254" y="188" width="34" height="44" rx="17" fill="#bcd7ea" stroke="#c3d0cc" stroke-width="2.5"/></svg>
