<svg xmlns="http://www.w3.org/2000/svg" viewBox="0 0 420 360" width="420" height="360" fill="none" role="img"><circle cx="210" cy="152" r="124" fill="#ffffff" opacity="0.55"/><path d="M132 150v-14a78 78 0 0 1 156 0v14" fill="none" stroke="#177050" stroke-width="13" stroke-linecap="round"/><rect x="114" y="142" width="38" height="60" rx="17" fill="#177050"/><rect x="268" y="142" width="38" height="60" rx="17" fill="#177050"/><path d="M286 202v8a22 22 0 0 1-22 22h-26" fill="none" stroke="#177050" stroke-width="9" stroke-linecap="round"/><circle cx="210" cy="178" r="54" fill="#ffffff"/><rect x="194" y="220" width="32" height="26" rx="9" fill="#f3ddc8"/><path d="M106 360a104 104 0 0 1 208 0z" fill="#ffffff"/><path d="M106 360a104 104 0 0 1 42-83l62 83z" fill="#aed8c4"/><path d="M314 360a104 104 0 0 0-42-83l-62 83z" fill="#aed8c4"/></svg>
